<svg xmlns="http://www.w3.org/2000/svg" fill="none" viewBox="0 0 40 10">
<path fill="#F8F8F8" d="M2.18 9.14c-.247 0-.463-.02-.65-.06a.913.913 0 0 1-.49-.29c-.133-.153-.2-.39-.2-.71 0-.447.133-1.047.4-1.8.273-.753.63-1.51 1.07-2.27-.333.02-.597.07-.79.15-.193.08-.32.203-.38.37.027 0 .053.033.08.1a.47.47 0 0 1 .05.21c0 .12-.053.217-.16.29a.742.742 0 0 1-.4.1.655.655 0 0 1-.45-.15c-.113-.1-.17-.243-.17-.43 0-.227.087-.433.26-.62.18-.187.427-.333.74-.44.313-.113.66-.17 1.04-.17.14 0 .313.01.52.03.547-.867 1.123-1.573 1.73-2.12C4.993.777 5.577.5 6.13.5c.32 0 .583.047.79.14L5.35 8H3.91l.77-3.63A4.109 4.109 0 0 0 4 4.12a4.01 4.01 0 0 0-.66-.11c-.38.82-.693 1.66-.94 2.52-.24.853-.36 1.537-.36 2.05 0 .253.047.44.14.56Zm3.17-7.93c-.287.153-.587.44-.9.86a9.92 9.92 0 0 0-.9 1.51c.48.093.887.21 1.22.35l.58-2.72Zm4.03.43 1.48-.2-.71 3.34c.32-.027.613-.167.88-.42.273-.253.487-.567.64-.94.153-.373.23-.74.23-1.1 0-.4-.103-.727-.31-.98-.207-.253-.517-.38-.93-.38-.813 0-1.45.213-1.91.64-.453.427-.68 1.023-.68 1.79 0 .247.023.42.07.52.047.093.07.147.07.16-.36 0-.63-.073-.81-.22-.173-.153-.26-.403-.26-.75 0-.427.173-.84.52-1.24A3.86 3.86 0 0 1 9.01.88 3.872 3.872 0 0 1 10.65.5c.527 0 .967.09 1.32.27.353.18.613.42.78.72.173.293.26.62.26.98a2.5 2.5 0 0 1-.36 1.27c-.233.413-.57.753-1.01 1.02-.44.26-.947.39-1.52.39h-.05L9.46 8H8.02l1.36-6.36Zm6.422-.26h-.12c-.593 0-1.056.15-1.39.45-.326.293-.49.817-.49 1.57 0 .247.024.42.07.52.047.093.07.147.07.16-.36 0-.63-.073-.81-.22-.173-.153-.26-.403-.26-.75 0-.473.117-.903.35-1.29.234-.393.604-.71 1.11-.95.514-.24 1.164-.36 1.95-.36.44 0 .914.04 1.42.12.427.073.807.11 1.14.11.427 0 .814-.07 1.16-.21-.013.433-.123.753-.33.96-.206.207-.513.31-.92.31a4.14 4.14 0 0 1-.64-.05c-.213-.033-.516-.09-.91-.17L15.823 8h-1.44l1.42-6.62Z"/><path fill="#F8F8F8" d="m19.06 3.63-.925-1.31h.5l.69 1.01.685-1.01h.495l-.925 1.31.975 1.37h-.5l-.73-1.07-.74 1.07h-.495l.97-1.37ZM23.162 5h-.445V2.685h-.79c-.034.423-.075.785-.125 1.085-.05.297-.114.538-.19.725a1.013 1.013 0 0 1-.275.41.577.577 0 0 1-.375.13.853.853 0 0 1-.13-.01.275.275 0 0 1-.1-.025v-.33a.495.495 0 0 0 .135.02c.073 0 .14-.03.2-.09a.777.777 0 0 0 .16-.275c.05-.123.095-.278.134-.465.04-.19.075-.413.105-.67.03-.257.057-.547.08-.87h1.616V5Zm1.915-2.725c.327 0 .568.072.725.215.157.143.235.372.235.685V5h-.32l-.085-.38h-.02a1.528 1.528 0 0 1-.24.245.79.79 0 0 1-.28.14 1.38 1.38 0 0 1-.38.045c-.16 0-.305-.028-.435-.085a.67.67 0 0 1-.3-.26.85.85 0 0 1-.11-.45.7.7 0 0 1 .315-.615c.21-.147.533-.227.97-.24l.455-.015v-.16c0-.223-.048-.378-.145-.465-.097-.087-.233-.13-.41-.13-.14 0-.273.022-.4.065a2.65 2.65 0 0 0-.355.14l-.135-.33c.117-.063.255-.117.415-.16.16-.047.327-.07.5-.07Zm.13 1.43c-.333.013-.565.067-.695.16a.462.462 0 0 0-.19.395c0 .15.045.26.135.33.093.07.212.105.355.105a.86.86 0 0 0 .565-.185c.15-.127.225-.32.225-.58v-.24l-.395.015ZM29.79 2.32V5h-.395V3.29c0-.07.002-.143.005-.22l.02-.225h-.015L28.53 5h-.37l-.85-2.155h-.015c.006.073.01.148.01.225.003.077.005.155.005.235V5h-.395V2.32h.585l.845 2.155.86-2.155h.585ZM19.5 8.05a1.36 1.36 0 0 1-.635-.145 1.034 1.034 0 0 1-.435-.45c-.103-.203-.155-.463-.155-.78 0-.33.055-.598.165-.805.11-.207.258-.358.445-.455.19-.097.405-.145.645-.145.137 0 .268.015.395.045.127.027.23.06.31.1l-.135.365a2.6 2.6 0 0 0-.28-.085 1.24 1.24 0 0 0-.3-.04.795.795 0 0 0-.445.115.679.679 0 0 0-.26.34 1.59 1.59 0 0 0-.085.56c0 .213.028.395.085.545a.69.69 0 0 0 .255.34.742.742 0 0 0 .425.115c.147 0 .275-.015.385-.045.113-.03.217-.067.31-.11v.39a1.18 1.18 0 0 1-.3.105c-.107.027-.237.04-.39.04Zm4.609-2.73v2.31h.39v1.3h-.425V8h-1.865v.93h-.42v-1.3h.215c.153-.213.28-.445.38-.695a4.642 4.642 0 0 0 .315-1.615h1.41Zm-1.02.345a4.19 4.19 0 0 1-.105.705c-.057.24-.13.47-.22.69a2.59 2.59 0 0 1-.305.57h1.225V5.665h-.595Zm1.565-.345h.47l.58 1.525c.033.09.063.177.09.26.03.083.057.165.08.245.023.077.042.152.055.225h.02a4.52 4.52 0 0 1 .095-.325c.043-.137.088-.273.135-.41l.545-1.52h.475l-1.155 3.05a1.969 1.969 0 0 1-.225.435.857.857 0 0 1-.75.395c-.08 0-.15-.005-.21-.015a1.379 1.379 0 0 1-.155-.025v-.35c.037.007.08.013.13.02.053.007.108.01.165.01a.546.546 0 0 0 .46-.225.984.984 0 0 0 .135-.25l.14-.355-1.08-2.69Zm6.654 0V8h-3.635V5.32h.44v2.31h1.155V5.32h.44v2.31h1.16V5.32h.44Zm3.237 1.335c0 .223-.03.422-.09.595a1.19 1.19 0 0 1-.25.435c-.107.12-.238.212-.395.275-.153.06-.325.09-.515.09-.177 0-.34-.03-.49-.09a1.107 1.107 0 0 1-.39-.275 1.315 1.315 0 0 1-.26-.435 1.815 1.815 0 0 1-.09-.595c0-.297.05-.547.15-.75.1-.207.243-.363.43-.47.187-.11.408-.165.665-.165.243 0 .457.055.64.165.187.107.332.263.435.47a1.6 1.6 0 0 1 .16.75Zm-2.025 0c0 .21.027.393.08.55a.736.736 0 0 0 .26.355.747.747 0 0 0 .445.125.75.75 0 0 0 .445-.125.706.706 0 0 0 .255-.355 1.61 1.61 0 0 0 .085-.55 1.54 1.54 0 0 0-.085-.545.706.706 0 0 0-.26-.345.733.733 0 0 0-.445-.125c-.273 0-.472.09-.595.27-.123.18-.185.428-.185.745Zm4.942-2.445a.931.931 0 0 1-.125.42.615.615 0 0 1-.3.255 1.345 1.345 0 0 1-.52.085 1.36 1.36 0 0 1-.525-.085.571.571 0 0 1-.285-.25 1.087 1.087 0 0 1-.11-.425h.41c.017.18.064.302.14.365.08.06.207.09.38.09a.6.6 0 0 0 .36-.095c.09-.067.144-.187.16-.36h.415Zm-1.755 2.745c0 .03-.001.073-.005.13 0 .053-.001.112-.005.175l-.01.175a3.9 3.9 0 0 1-.01.13l1.435-2.245h.54V8h-.41V6.21a94.047 94.047 0 0 1 .02-.45L35.837 8h-.545V5.32h.415v1.635Z"/></svg>
